<?xml version="1.0" encoding="utf-8"?>
<!-- Generator: Adobe Illustrator 23.0.6, SVG Export Plug-In . SVG Version: 6.00 Build 0)  -->
<svg version="1.1" id="Calque_1" xmlns="http://www.w3.org/2000/svg" xmlns:xlink="http://www.w3.org/1999/xlink" x="0px" y="0px"
	 viewBox="0 0 218.12 140.39" style="enable-background:new 0 0 218.12 140.39;" xml:space="preserve">
<style type="text/css">
	.st0{fill:#706F6F;}
	.st1{fill:none;stroke:#000000;stroke-width:3;stroke-miterlimit:10;}
	.st2{fill:none;stroke:#000000;stroke-width:1.5;stroke-miterlimit:10;}
	.st3{fill:#FFFFFF;}
	.st4{fill:#FAC943;}
	.st5{fill:#878787;}
	.st6{fill:none;stroke:#FAC943;stroke-width:3;stroke-miterlimit:10;}
	.st7{fill:none;stroke:#F6B949;stroke-width:3;stroke-miterlimit:10;}
	.st8{fill:none;stroke:#FAC200;stroke-width:3;stroke-miterlimit:10;}
	.st9{stroke:#000000;stroke-width:13;stroke-linejoin:bevel;stroke-miterlimit:10;}
	.st10{fill:none;stroke:#000000;stroke-miterlimit:10;}
	.st11{fill:none;stroke:#FAC943;stroke-miterlimit:10;}
	.st12{fill:#575756;}
</style>
<path d="M140.58,84.89v9.86H112.4V49.91h27.87v9.86h-17.62v7.43h16.01v9.74h-16.01v7.94H140.58z"/>
<path d="M161.47,80.02h-4.87v14.73h-10.25V49.91h17.94c8.52,0,15.37,6.85,15.37,15.37c0,5.51-3.33,10.51-8.26,13l9.54,16.46h-11.02
	L161.47,80.02z M156.6,71.05h7.69c2.82,0,5.13-2.5,5.13-5.77c0-3.27-2.31-5.77-5.13-5.77h-7.69V71.05z"/>
<g>
	<path d="M54.38,54.82c-0.29,0.06-0.58,0.1-0.87,0.1c-2.28,0-4.52-1.89-6.89-5.85c-0.21,0.02-0.41,0.04-0.62,0.07
		c0.62,2.21,1.36,4.76,2.23,7.65l0.01,0.03l0.01,0.03c0.19,0.85,0.09,1.59-0.28,2.16c4.08,0.01,6.19,1.99,7.73,5.19l8.65-5.06
		c-1.65-3.33-3.93-5.87-6.74-7.58C57.33,53.25,56.22,54.4,54.38,54.82z"/>
	<path d="M51.22,67.97c-6.98-2.11-8.07-3.52-8.07-5.57c0-0.84,0.36-1.62,1.06-2.23c-0.35-0.12-0.66-0.3-0.95-0.56
		c-0.39-0.37-0.69-0.92-0.93-1.69c-0.7-2.37-1.35-4.76-1.96-7.16c-0.64,0.32-1.26,0.67-1.84,1.08c0.3,4.38-0.08,7.6-1.16,9.85
		c-0.99,1.86-2.42,3.05-4.23,3.56c1.19,6.66,7.02,9.4,12.96,11.05c6.73,1.86,9.29,2.95,9.29,5.7c0,1.73-1.22,3.65-6.09,3.65
		c-5.06,0-7.81-2.5-9.42-6.21l-8.84,5.13c2.5,6.6,8.52,11.08,17.94,11.08c9.74,0,16.66-5.13,16.66-13.77
		C65.63,72.39,58.01,70.02,51.22,67.97z"/>
</g>
<g>
	<path d="M103.82,51.34c-0.32,0.07-0.64,0.11-0.95,0.11c-1.15,0-2.15-0.54-2.91-1.54h-5.18v29.46c0,3.4-1.6,6.28-7.05,6.28
		c-5.44,0-7.05-2.88-7.05-6.28V52.78c-0.39,0.08-0.78,0.13-1.13,0.13c-1.45,0-2.64-0.65-3.42-1.89c-0.22-0.35-0.43-0.73-0.64-1.11
		h-5.05v30.36c0,9.61,7.43,15.37,17.29,15.37c9.87,0,17.3-5.77,17.3-15.37V50.81C104.68,51.05,104.27,51.23,103.82,51.34z"/>
</g>
<line class="st7" x1="31.48" y1="116.56" x2="180.18" y2="116.56"/>
<line class="st7" x1="31.48" y1="101.92" x2="180.18" y2="101.92"/>
<line class="st7" x1="31.48" y1="109.24" x2="180.18" y2="109.24"/>
<g>
	<g>
		<path class="st12" d="M30.89,64.34c-2.53,0-4.7-1.5-6.46-4.47c-1.75-2.89-3.02-6.06-3.78-9.41c-0.5-2.2-0.69-4.46-0.56-6.71
			c0.13-1.85,0.37-2.35,0.59-2.6c0.27-0.31,0.33-0.76,0.2-1.37c-0.29-1.72-0.42-3.44-0.39-5.14c0-2.11,0.78-3.98,2.3-5.53
			c0.9-0.81,1.86-1.33,2.87-1.57c0.42-0.09,1.01-0.14,1.81-0.14l0.36,0c1.07,0.02,2.23,0.66,3.44,1.92
			c2.07,2.27,3.81,6.5,5.32,12.95c0.47,2.31,0.83,4.68,1.07,7.06c0.54,5.25,0.23,8.98-0.93,11.4c-1,1.87-2.43,3.02-4.28,3.43
			C31.92,64.28,31.39,64.34,30.89,64.34z M28.98,53.25c0.69,1.65,1.56,3.26,2.57,4.74c0.28-0.86,0.45-1.74,0.53-2.64
			c0.58-5.14,0.29-10.31-0.86-15.4c-0.97-4.3-2.16-7.34-3.52-9.05c-0.14-0.15-0.23-0.22-0.28-0.24c-0.05,0.03-0.17,0.09-0.35,0.25
			c-0.92,0.84-1.42,1.86-1.52,3.09c-0.11,1.32-0.12,2.64-0.02,3.92c0.03,0.12,0.06,0.31,0.07,0.49c0.02,0.83,0.12,1.66,0.3,2.46
			l0.2,0.86c0.13,0.58,0.24,1.19,0.33,1.8c0.08,0.59,0.2,1.19,0.33,1.8c0.68,2.98,1.62,4.83,2.81,5.49
			c0.35,0.22,0.54,0.47,0.61,0.77c0.08,0.35,0.13,1.2-1.15,1.64C29.02,53.24,29,53.24,28.98,53.25z"/>
		<path class="st3" d="M27.47,27.89c0.11,0,0.23,0,0.35,0c0.94,0.01,1.97,0.6,3.09,1.76c1.98,2.18,3.71,6.41,5.19,12.72
			c0.47,2.29,0.82,4.62,1.05,6.99c0.53,5.1,0.23,8.82-0.88,11.14c-0.92,1.72-2.23,2.78-3.94,3.16c-0.49,0.11-0.98,0.17-1.44,0.17
			c-2.35,0-4.36-1.41-6.03-4.23c-1.73-2.86-2.98-5.95-3.73-9.26c-0.49-2.16-0.67-4.35-0.54-6.58c0.09-1.28,0.24-2.05,0.46-2.3
			c0.38-0.44,0.48-1.04,0.31-1.81c-0.28-1.68-0.41-3.35-0.38-5.02c0-1.99,0.72-3.72,2.16-5.18c0.82-0.74,1.69-1.22,2.63-1.43
			C26.15,27.94,26.71,27.89,27.47,27.89 M31.75,58.92c0.45-1.14,0.73-2.31,0.83-3.52c0.59-5.2,0.3-10.39-0.87-15.55
			c-1-4.39-2.2-7.48-3.61-9.25c-0.27-0.3-0.49-0.44-0.67-0.44c-0.02,0-0.05,0-0.07,0.01c-0.14,0.03-0.34,0.15-0.6,0.36
			c-1.02,0.94-1.59,2.08-1.7,3.43c-0.11,1.35-0.12,2.68-0.02,4c0.04,0.17,0.06,0.33,0.07,0.48c0.02,0.85,0.12,1.7,0.31,2.54
			l0.2,0.86c0.13,0.58,0.24,1.16,0.32,1.76c0.08,0.6,0.2,1.21,0.34,1.83c0.71,3.15,1.73,5.08,3.06,5.82
			c0.21,0.13,0.33,0.28,0.37,0.45c0.11,0.48-0.17,0.83-0.82,1.06c-0.26,0.08-0.4,0.15-0.43,0.21c-0.03,0.06-0.02,0.17,0.02,0.34
			c0.79,1.92,1.76,3.69,2.91,5.32c0.01,0.02,0.02,0.05,0.04,0.09c0.02,0.03,0.05,0.07,0.1,0.11C31.56,58.86,31.64,58.89,31.75,58.92
			 M27.47,26.89c-0.84,0-1.47,0.05-1.92,0.15c-1.1,0.25-2.14,0.81-3.08,1.66l-0.02,0.02l-0.02,0.02c-1.62,1.65-2.44,3.63-2.44,5.88
			c-0.03,1.71,0.11,3.46,0.39,5.19l0,0.03l0.01,0.03c0.15,0.66-0.03,0.87-0.09,0.94c-0.33,0.37-0.57,1.01-0.7,2.89
			c-0.13,2.31,0.06,4.62,0.57,6.87c0.77,3.41,2.07,6.62,3.85,9.56c1.85,3.12,4.17,4.71,6.88,4.71c0.54,0,1.1-0.06,1.67-0.19
			c1.99-0.45,3.54-1.68,4.6-3.67c1.23-2.55,1.55-6.37,1-11.71c-0.23-2.38-0.59-4.77-1.07-7.09c-1.54-6.56-3.31-10.86-5.43-13.19
			c-1.34-1.39-2.58-2.07-3.81-2.09C27.71,26.89,27.59,26.89,27.47,26.89L27.47,26.89z M26.02,37.81c-0.09-1.23-0.08-2.5,0.03-3.77
			c0.09-1.08,0.52-1.97,1.33-2.73c1.28,1.67,2.41,4.61,3.35,8.76c1.14,5.03,1.43,10.15,0.85,15.22c-0.04,0.51-0.12,1-0.23,1.49
			c-0.64-1.03-1.21-2.13-1.71-3.27c1.23-0.64,1.1-1.7,1.03-2.03c-0.07-0.3-0.26-0.73-0.81-1.07l-0.02-0.02l-0.02-0.01
			c-0.73-0.4-1.77-1.63-2.57-5.16c-0.14-0.6-0.24-1.19-0.32-1.75c-0.09-0.63-0.2-1.25-0.34-1.84l-0.2-0.86
			c-0.17-0.77-0.27-1.56-0.29-2.34C26.09,38.2,26.06,38.01,26.02,37.81L26.02,37.81z"/>
	</g>
	<g>
		<path class="st12" d="M44.96,59.12c-0.61,0-1.14-0.19-1.57-0.57c-0.33-0.32-0.59-0.8-0.81-1.48c-1.17-3.92-2.21-7.92-3.11-11.87
			c-1.1-4.87-1.9-9.24-2.37-12.99c-0.48-3.95,0.1-6.05,1.78-6.43c0.21-0.05,0.44-0.07,0.69-0.07l0.18,0
			c1.26,0.09,2.32,0.71,3.14,1.83c0.75,1.03,1.41,2.12,1.97,3.25c0.69,1.36,1.37,2.74,2.03,4.13c1.98,3.99,3.21,6.37,3.98,7.77
			c-0.41-2.72-1.15-7.16-2.19-13.28c-0.66-3.83-0.99-6.07-1.01-6.85c-0.02-0.99,0.53-1.67,1.55-1.9c0.17-0.04,0.34-0.06,0.5-0.06
			c0.44,0,0.89,0.13,1.32,0.39c0.3,0.15,0.73,0.51,0.9,1.26L52,22.38c0.56,3.25,1.17,6.5,1.82,9.7c1.37,6.92,2.25,11.5,2.63,13.61
			c0.28,1.33,0.46,2.71,0.54,4.07c0.07,2.08-0.94,3.41-2.93,3.85c-0.25,0.06-0.51,0.09-0.76,0.09c0,0,0,0,0,0
			c-3.03,0-6.21-3.97-9.7-12.14c-0.06-0.14-0.12-0.28-0.17-0.41c0.07,0.3,0.13,0.6,0.2,0.91c0.68,3,2,7.75,3.92,14.14
			c0.34,1.49-0.31,2.47-1.8,2.81C45.47,59.09,45.21,59.12,44.96,59.12z"/>
		<path class="st3" d="M49.74,21.12c0.35,0,0.71,0.11,1.07,0.32c0.34,0.17,0.57,0.49,0.67,0.95l0.02,0.11
			c0.56,3.25,1.17,6.49,1.82,9.69c1.38,6.98,2.25,11.51,2.63,13.6c0.27,1.33,0.45,2.66,0.53,4.01c0.06,1.83-0.79,2.94-2.54,3.34
			c-0.21,0.05-0.43,0.07-0.65,0.07c-2.78,0-5.87-3.94-9.24-11.84c-1.2-2.86-1.86-4.32-1.98-4.4l0.03,0.14
			c0.23,1.36,0.58,3.05,1.03,5.07c0.69,3.02,2,7.75,3.93,14.18c0.27,1.17-0.21,1.9-1.44,2.18c-0.24,0.05-0.46,0.08-0.67,0.08
			c-0.49,0-0.9-0.15-1.23-0.44c-0.26-0.24-0.48-0.66-0.66-1.25c-1.17-3.93-2.2-7.87-3.1-11.83c-1.1-4.87-1.89-9.19-2.36-12.94
			c-0.44-3.61,0.03-5.57,1.39-5.88c0.17-0.04,0.37-0.06,0.58-0.06c0.05,0,0.11,0,0.16,0c1.1,0.08,2.02,0.62,2.75,1.63
			c0.73,1.01,1.38,2.07,1.93,3.18c0.69,1.36,1.36,2.73,2.03,4.12c3.06,6.17,4.82,9.46,5.26,9.86c-0.24-1.94-1.08-7.16-2.53-15.67
			c-0.65-3.76-0.99-6.02-1-6.77c-0.02-0.75,0.37-1.22,1.16-1.4C49.48,21.14,49.61,21.12,49.74,21.12 M49.74,20.12
			c-0.21,0-0.41,0.02-0.61,0.07c-1.26,0.29-1.97,1.16-1.94,2.4c0.01,0.51,0.13,1.79,1.02,6.92c0.72,4.24,1.29,7.68,1.72,10.29
			c-0.67-1.3-1.51-2.96-2.57-5.1c-0.68-1.41-1.37-2.8-2.03-4.13c-0.57-1.15-1.25-2.26-2.01-3.31c-0.91-1.25-2.09-1.94-3.49-2.04
			c-0.1,0-0.17-0.01-0.23-0.01c-0.29,0-0.56,0.03-0.8,0.08c-2.93,0.66-2.35,5.41-2.16,6.98c0.47,3.77,1.28,8.16,2.38,13.04
			c0.9,3.96,1.94,7.96,3.11,11.89c0.24,0.78,0.55,1.32,0.93,1.69c0.54,0.48,1.18,0.72,1.92,0.72c0.28,0,0.58-0.04,0.89-0.1
			c1.76-0.4,2.58-1.66,2.19-3.38l-0.01-0.03l-0.01-0.03c-1.19-3.97-2.16-7.3-2.87-9.98c2.84,5.52,5.47,8.12,8.14,8.12
			c0.29,0,0.59-0.03,0.87-0.1c2.21-0.5,3.39-2.04,3.32-4.35c-0.08-1.41-0.27-2.81-0.55-4.18c-0.37-2.07-1.26-6.65-2.63-13.59
			c-0.65-3.21-1.26-6.46-1.81-9.67l0-0.02l-0.01-0.02l-0.02-0.11c-0.21-0.93-0.74-1.38-1.16-1.6
			C50.79,20.27,50.27,20.12,49.74,20.12L49.74,20.12z"/>
	</g>
	<g>
		<path class="st12" d="M79.34,51.7c-1.29,0-2.3-0.56-3-1.65c-0.64-1.02-1.25-2.17-1.82-3.45c-1.43-3.2-2.74-6.51-3.9-9.83
			c-2.11-5.97-3.5-10.4-4.12-13.17c-0.12-0.52-0.2-1.06-0.25-1.61c-0.08-1.2,0.56-2.01,1.81-2.29c0.32-0.07,0.65-0.11,0.97-0.11
			c0.49,0,0.99,0.08,1.49,0.25c0.83,0.28,1.54,0.8,2.1,1.55c1.32,1.98,3.24,7,5.89,15.36c0.14-1.69,0.38-4.69,0.77-9.81
			c0.62-8.05,0.97-12.22,1.07-12.74c0.13-0.69,0.56-1.16,1.24-1.31c0.23-0.05,0.46-0.08,0.68-0.08c0.56,0,1.08,0.16,1.57,0.49
			c0.36,0.23,0.61,0.57,0.7,0.99c0.03,0.15,0.04,0.33,0.02,0.54c-0.33,4.51-0.56,9.09-0.69,13.6L83.5,42.4
			c-0.1,3.56-0.16,5.54-0.17,5.94c-0.05,1.7-1.02,2.82-2.8,3.22C80.12,51.65,79.72,51.7,79.34,51.7z"/>
		<path class="st3" d="M82.26,13.32c0.46,0,0.89,0.13,1.29,0.4c0.26,0.17,0.43,0.39,0.49,0.68c0.02,0.1,0.02,0.22,0.01,0.38
			c-0.33,4.54-0.57,9.09-0.7,13.63L83,42.38c-0.1,3.56-0.16,5.54-0.17,5.94c-0.04,1.47-0.85,2.39-2.41,2.74
			c-0.39,0.09-0.75,0.13-1.09,0.13c-1.12,0-1.97-0.47-2.58-1.42c-0.63-0.99-1.22-2.12-1.79-3.38c-1.43-3.21-2.73-6.47-3.88-9.79
			c-2.11-5.98-3.48-10.35-4.11-13.11c-0.11-0.5-0.19-1.02-0.24-1.54c-0.06-0.94,0.41-1.53,1.42-1.76c0.28-0.06,0.57-0.1,0.86-0.1
			c0.44,0,0.88,0.08,1.33,0.23c0.74,0.25,1.36,0.71,1.86,1.37c1.3,1.95,3.31,7.25,6.02,15.9c0.27,0.85,0.45,1.29,0.56,1.31
			c0.04-0.14,0.37-4.11,0.97-11.92c0.62-7.96,0.97-12.19,1.06-12.69c0.09-0.5,0.37-0.8,0.85-0.91
			C81.89,13.34,82.08,13.32,82.26,13.32 M82.26,12.32c-0.26,0-0.52,0.03-0.79,0.09c-0.87,0.2-1.46,0.82-1.62,1.71
			c-0.06,0.34-0.24,2.04-1.07,12.79c-0.25,3.21-0.43,5.57-0.57,7.29c-2.27-6.97-3.96-11.26-5.16-13.06l-0.02-0.03l-0.02-0.02
			c-0.63-0.83-1.41-1.41-2.34-1.72c-0.55-0.18-1.1-0.28-1.65-0.28c-0.36,0-0.72,0.04-1.08,0.12c-1.49,0.34-2.29,1.36-2.2,2.8
			c0.05,0.58,0.13,1.15,0.26,1.69c0.63,2.79,2.02,7.24,4.14,13.23c1.16,3.33,2.48,6.65,3.92,9.87c0.58,1.29,1.2,2.47,1.86,3.51
			c0.78,1.24,1.97,1.89,3.42,1.89c0.41,0,0.85-0.05,1.31-0.16c2-0.45,3.13-1.76,3.19-3.69c0.01-0.42,0.07-2.39,0.17-5.95l0.35-13.98
			c0.13-4.5,0.36-9.07,0.69-13.59c0.02-0.24,0.01-0.47-0.03-0.67c-0.12-0.55-0.45-1-0.94-1.31C83.54,12.51,82.92,12.32,82.26,12.32
			L82.26,12.32z"/>
	</g>
	<g>
		<path class="st12" d="M102.66,50.24c-1.04,0-1.9-0.48-2.58-1.42c-1.09-1.76-2.5-5.51-4.34-11.48c-0.15-0.52-0.27-1.02-0.38-1.51
			c-0.13-0.56-0.32-1.63-0.58-3.18c-0.02,0-0.05,0.01-0.08,0.02c-1.71,0.39-3.34,1.05-4.83,1.98c-0.32,0.23-0.67,0.4-1.02,0.49
			c0.05,0.26,0.1,0.51,0.13,0.75c0.12,0.83,0.29,1.75,0.5,2.72c0.62,2.75,0.97,3.39,1.09,3.54c0.23,0.24,0.4,0.54,0.48,0.88
			c0.14,0.63-0.06,1.04-0.26,1.28c-0.26,0.32-0.66,0.53-1.22,0.66c-0.2,0.04-0.39,0.07-0.58,0.07c-0.91,0-1.65-0.51-2.18-1.53
			c-0.47-1-0.91-2.44-1.36-4.44c-1.69-7.45-1.22-15.11,1.39-22.77c0.47-1.37,1.09-2.68,1.84-3.88c0.81-1.29,1.79-2.07,2.9-2.32
			c0.27-0.06,0.54-0.09,0.82-0.09c0.45,0,0.9,0.08,1.35,0.25c1.88,0.66,3.47,2.53,4.74,5.55c0.44,1.48,0.84,2.98,1.18,4.51
			c0.5,2.23,1.14,5.67,1.88,10.24c0.74,4.53,1.43,8.23,2.05,10.97c0.99,4.35,1.38,5.19,1.5,5.34c0.2,0.26,0.31,0.5,0.37,0.74
			c0.09,0.4,0.04,0.8-0.15,1.19c-0.39,0.7-1.01,1.14-1.84,1.33C103.21,50.2,102.93,50.24,102.66,50.24z M92.27,14.38
			c-0.47,0.65-0.92,1.59-1.34,2.78c-1.66,4.54-2.46,9.33-2.37,14.26c1.28-0.6,2.65-1.07,4.06-1.39c0.54-0.12,1.1-0.23,1.69-0.32
			c-0.03-0.39-0.11-1.31-0.33-3.44c-0.57-5.59-0.98-8.99-1.23-10.11C92.62,15.6,92.46,14.99,92.27,14.38z"/>
		<path class="st3" d="M92.4,10.51c0.39,0,0.79,0.07,1.18,0.22c1.75,0.61,3.24,2.37,4.45,5.28c0.42,1.42,0.81,2.9,1.16,4.43
			c0.51,2.23,1.13,5.64,1.88,10.21c0.75,4.58,1.43,8.24,2.06,11c0.75,3.29,1.28,5.14,1.6,5.54c0.14,0.19,0.24,0.38,0.27,0.54
			c0.07,0.29,0.03,0.57-0.11,0.86c-0.31,0.55-0.81,0.9-1.5,1.06c-0.25,0.06-0.5,0.09-0.73,0.09c-0.87,0-1.6-0.4-2.18-1.21
			c-1.04-1.68-2.46-5.46-4.27-11.34c-0.14-0.5-0.26-0.99-0.37-1.47c-0.13-0.58-0.33-1.69-0.61-3.34c-0.02-0.07-0.04-0.14-0.07-0.21
			c-0.01-0.03-0.06-0.05-0.14-0.05c-0.1,0-0.24,0.02-0.44,0.07c-1.78,0.4-3.44,1.08-4.99,2.04c-0.3,0.22-0.6,0.36-0.89,0.43
			l-0.11,0.02c-0.24,0.05-0.33,0.21-0.27,0.48c0.06,0.27,0.11,0.53,0.14,0.8c0.12,0.86,0.29,1.78,0.51,2.76
			c0.48,2.11,0.87,3.36,1.19,3.74c0.2,0.21,0.32,0.43,0.38,0.67c0.16,0.7-0.21,1.14-1.1,1.35c-0.16,0.04-0.32,0.05-0.47,0.05
			c-0.72,0-1.3-0.42-1.74-1.26c-0.44-0.94-0.88-2.37-1.32-4.32c-1.67-7.39-1.22-14.89,1.38-22.5c0.45-1.34,1.05-2.6,1.79-3.77
			c0.74-1.18,1.61-1.88,2.59-2.1C91.93,10.53,92.17,10.51,92.4,10.51 M88.27,32.1c0.03,0,0.05,0,0.08-0.01
			c1.38-0.69,2.84-1.21,4.38-1.56c0.58-0.13,1.19-0.25,1.85-0.34c0.12-0.03,0.2-0.07,0.24-0.13c0.04-0.06-0.07-1.33-0.34-3.82
			c-0.57-5.62-0.98-9.01-1.24-10.17c-0.14-0.62-0.31-1.24-0.5-1.86l-0.07-0.14c-0.05-0.22-0.16-0.41-0.32-0.57
			c-0.68,0.68-1.31,1.85-1.9,3.5c-1.72,4.68-2.51,9.57-2.39,14.66c-0.02,0.16-0.01,0.28,0.01,0.38
			C88.14,32.08,88.21,32.1,88.27,32.1 M92.4,9.51c-0.31,0-0.62,0.04-0.93,0.1c-1.25,0.28-2.33,1.14-3.22,2.54
			c-0.78,1.24-1.42,2.58-1.9,3.99c-2.64,7.74-3.11,15.5-1.4,23.04c0.46,2.03,0.92,3.51,1.39,4.52c0.8,1.52,1.88,1.83,2.64,1.83
			c0.22,0,0.45-0.03,0.69-0.08c0.67-0.15,1.17-0.43,1.49-0.83c0.27-0.33,0.54-0.89,0.36-1.71c-0.09-0.4-0.29-0.77-0.59-1.1
			c-0.07-0.11-0.39-0.71-0.98-3.32c-0.22-0.95-0.38-1.85-0.5-2.68c-0.02-0.12-0.03-0.23-0.05-0.35c0.25-0.1,0.49-0.24,0.74-0.42
			c1.31-0.81,2.73-1.41,4.22-1.79c0.22,1.27,0.38,2.17,0.5,2.68c0.11,0.5,0.24,1.01,0.38,1.52c1.86,6.04,3.29,9.82,4.38,11.59
			l0.02,0.03l0.02,0.03c0.76,1.06,1.8,1.62,2.99,1.62c0.31,0,0.62-0.04,0.95-0.11c0.97-0.22,1.71-0.75,2.15-1.55l0.01-0.02
			l0.01-0.03c0.24-0.49,0.3-1.01,0.18-1.52c-0.07-0.31-0.21-0.61-0.45-0.92c-0.09-0.14-0.47-0.94-1.42-5.17
			c-0.62-2.74-1.31-6.42-2.05-10.94c-0.75-4.58-1.38-8.03-1.89-10.27c-0.35-1.54-0.74-3.06-1.17-4.5l-0.02-0.05l-0.02-0.05
			c-1.32-3.16-3.02-5.13-5.04-5.83C93.42,9.6,92.91,9.51,92.4,9.51L92.4,9.51z M89.06,30.66c0-4.6,0.79-9.08,2.34-13.32
			c0.23-0.65,0.47-1.22,0.71-1.7c0.06,0.22,0.11,0.43,0.16,0.65c0.25,1.1,0.66,4.48,1.22,10.05c0.16,1.55,0.25,2.45,0.29,2.97
			c-0.44,0.08-0.87,0.16-1.27,0.25C91.32,29.82,90.16,30.19,89.06,30.66L89.06,30.66z"/>
	</g>
</g>
</svg>
